<svg width="45" height="80" viewBox="0 0 45 80" fill="none" xmlns="http://www.w3.org/2000/svg">
<path d="M44.5117 38.8926C45.1233 39.4513 45.1662 40.4001 44.6074 41.0117C44.0487 41.6233 43.0999 41.6662 42.4883 41.1074L44.5117 38.8926ZM1.98827 4.10745L0.88084 3.09572L2.9043 0.880855L4.01173 1.89258L1.98827 4.10745ZM42.4883 41.1074L1.98827 4.10745L4.01173 1.89258L44.5117 38.8926L42.4883 41.1074Z" fill="black"/>
<path d="M44.5117 41.1074C45.1233 40.5487 45.1662 39.5999 44.6074 38.9883C44.0487 38.3767 43.0999 38.3338 42.4883 38.8926L44.5117 41.1074ZM1.98827 75.8926L0.88084 76.9043L2.9043 79.1191L4.01173 78.1074L1.98827 75.8926ZM42.4883 38.8926L1.98827 75.8926L4.01173 78.1074L44.5117 41.1074L42.4883 38.8926Z" fill="black"/>
</svg>
