<svg width="45" height="80" viewBox="0 0 45 80" fill="none" xmlns="http://www.w3.org/2000/svg">
<path d="M0.988272 41.1074C0.376654 40.5487 0.333806 39.5999 0.892568 38.9883C1.45133 38.3767 2.40011 38.3338 3.01173 38.8926L0.988272 41.1074ZM43.5117 75.8926L44.6192 76.9043L42.5957 79.1191L41.4883 78.1074L43.5117 75.8926ZM3.01173 38.8926L43.5117 75.8926L41.4883 78.1074L0.988272 41.1074L3.01173 38.8926Z" fill="black"/>
<path d="M0.988272 38.8926C0.376654 39.4513 0.333806 40.4001 0.892568 41.0117C1.45133 41.6233 2.40011 41.6662 3.01173 41.1074L0.988272 38.8926ZM43.5117 4.10745L44.6192 3.09572L42.5957 0.880855L41.4883 1.89258L43.5117 4.10745ZM3.01173 41.1074L43.5117 4.10745L41.4883 1.89258L0.988272 38.8926L3.01173 41.1074Z" fill="black"/>
</svg>
